<?xml version="1.0" encoding="UTF-8"?><svg id="Layer_1" xmlns="http://www.w3.org/2000/svg" viewBox="0 0 183.31 195"><defs><style>.cls-1{fill:#fff;}</style></defs><path class="cls-1" d="M85.39,59.21c3.17,.94,6.38,1.58,9.65,2.03,.84,.1,1.68,.2,2.47,.3,.05-.3,.1-.64,.15-.94,.35-2.13,.74-4.31,1.09-6.43,.79-4.8,1.63-9.65,3.17-14.25,.3-.84,.59-1.68,.89-2.52-1.98-.3-4.01-.49-5.99-.59-.49-.05-.99-.05-1.43-.05-.35,2.77-1.04,5.49-2.03,8.07-1.39,3.71-3.17,7.27-5.35,10.64-.79,1.24-1.68,2.47-2.62,3.76h0Z"/><path class="cls-1" d="M96.52,70.55c.1-1.53,.2-3.07,.4-4.6-2.18-.2-4.31-.54-6.43-.94-2.72-.49-5.44-1.19-8.07-2.03-.49,.59-1.04,1.19-1.58,1.78-3.51,3.86-7.47,7.27-11.83,10.15-1.24,.84-2.52,1.63-3.86,2.38,.79,3.56,1.09,7.32,.79,10.94-.1,1.48-.3,3.02-.59,4.5,.74-.1,1.43-.2,2.18-.3,10.05-1.39,19.99-3.32,29.79-5.89-.79-5.29-1.09-10.64-.79-15.99h0Z"/><path class="cls-1" d="M60.99,105.79c-.3,.69-.64,1.34-.94,1.98,1.39,.49,2.77,1.04,4.11,1.68,4.55,2.13,8.81,4.95,12.47,8.36,.1,.1,.25,.2,.35,.3,6.48-8.56,12.72-17.37,18.36-26.48-10.24,2.52-20.59,4.41-31.08,5.64-.89,2.92-1.98,5.74-3.27,8.51h0Z"/><path class="cls-1" d="M101.97,61.84c2.97,.1,5.99,.05,8.96-.2,1.29-3.12,2.47-6.24,3.61-9.45,1.19-3.51,2.33-7.08,3.07-10.74-.45-.2-.94-.4-1.39-.59-2.87-1.14-5.84-2.08-8.91-2.77-1.68,4.16-2.67,8.61-3.51,13.02-.4,2.13-.74,4.31-1.09,6.43-.25,1.48-.49,2.87-.74,4.3h0Z"/><path class="cls-1" d="M104.29,66.34c-.99,0-1.93-.05-2.92-.1-.54,5.15-.64,10.29-.15,15.39,2.82-5.05,5.4-10.2,7.77-15.44-1.58,.1-3.17,.15-4.7,.15h0Z"/><path class="cls-1" d="M115.97,61c4.75-.84,9.4-2.18,13.91-4.06,2.18-.94,4.31-1.98,6.34-3.12-2.57-2.52-5.4-4.85-8.46-6.88-1.88-1.29-3.86-2.42-5.99-3.51-1.29,5.74-3.27,11.33-5.44,16.83-.15,.2-.25,.5-.35,.74h0Z"/><path class="cls-1" d="M117.26,65.25c-1.09,.2-2.18,.35-3.27,.49-1.48,3.51-3.12,6.98-4.8,10.39-1.43,2.82-2.92,5.59-4.45,8.31,8.21-2.42,16.28-5.25,24.2-8.56,6.04-2.57,11.93-5.4,17.72-8.51-.35-.59-.69-1.19-1.04-1.73-1.78-2.92-3.86-5.79-6.29-8.51-2.13,1.24-4.36,2.38-6.63,3.37-4.95,2.18-10.1,3.86-15.44,4.75h0Z"/><path class="cls-1" d="M102.46,89.75c.89,3.91,2.08,7.72,3.61,11.43,2.13,5,4.85,9.7,8.12,14.06,.15,.2,.35,.45,.49,.64,2.57-4.16,5.59-8.07,8.91-11.68,4.16-4.5,8.81-8.56,13.91-11.93,4.9-3.22,10.15-5.89,15.64-7.97-.45-1.93-.94-3.86-1.58-5.74-.79-2.42-1.78-4.85-2.87-7.18-3.56,1.93-7.13,3.71-10.79,5.4-11.43,5.29-23.31,9.6-35.43,12.96h0Z"/><path class="cls-1" d="M153.98,88.71c-.69,.25-1.43,.54-2.13,.84-5.69,2.42-11.04,5.54-15.94,9.25-4.95,3.86-9.35,8.31-13.21,13.26-1.78,2.33-3.41,4.75-4.95,7.27,3.27,3.51,6.88,6.73,10.69,9.7,3.61,2.77,7.37,5.35,11.14,7.87,2.33-2.62,4.41-5.44,6.24-8.41,2.23-3.61,4.11-7.62,5.59-11.93,1.34-3.96,2.33-8.26,2.82-12.82,.54-4.9,.44-10-.25-15.04h0Z"/><path class="cls-1" d="M104.49,108.16c-2.28-4.45-4.16-9.16-5.49-14.01-5.84,9.35-12.27,18.36-18.91,27.12,.89,.99,1.78,2.03,2.62,3.12,1.88,2.38,3.66,4.9,5.25,7.52,1.63,2.72,3.07,5.59,4.31,8.51,2.38-.59,4.8-1.04,7.23-1.24,1.19-.1,2.38-.15,3.56-.15,.69,0,1.39,0,2.03,.05,.49-2.23,1.09-4.41,1.78-6.58,1.43-4.36,3.27-8.56,5.44-12.57-3.02-3.66-5.64-7.57-7.82-11.78h0Z"/><path class="cls-1" d="M104.25,143.5h-1.14c-1.73,0-3.41,.1-5.15,.35-1.39,.2-2.72,.45-4.06,.79,.4,1.04,.74,2.08,1.09,3.12,1.04,3.22,1.88,6.53,2.62,9.85,2.13-.15,4.31-.4,6.53-.74-.15-.59-.25-1.14-.35-1.73-.35-2.52-.35-5.05-.1-7.62,.1-1.39,.3-2.67,.54-4.01h0Z"/><path class="cls-1" d="M128.79,134.84c-4.7-3.46-9.25-7.13-13.31-11.38-.84,1.63-1.63,3.32-2.38,5-1.48,3.61-2.67,7.32-3.56,11.14,2.52,.45,4.95,1.19,7.32,2.08,2.87,1.14,5.69,2.47,8.36,4.11,.84,.49,1.68,1.04,2.52,1.58,.05-.05,.15-.1,.2-.15,3.07-2.08,5.94-4.41,8.56-7.03-.1-.1-.25-.15-.35-.25-2.52-1.58-5-3.32-7.37-5.1h0Z"/><path class="cls-1" d="M108.65,143.94c-.15,.84-.3,1.63-.4,2.47-.3,2.57-.45,5.15-.15,7.72,.1,.59,.2,1.19,.35,1.78,5.2-1.29,10.29-3.27,15.04-5.94-2.23-1.34-4.5-2.57-6.88-3.61-2.57-1.04-5.24-1.88-7.97-2.42h0Z"/><path d="M67.77,130.04l-.05,.05c-.1,.15-.2,.25-.3,.4,.15-.15,.25-.3,.35-.45h0Z"/><path class="cls-1" d="M73.66,122.37c.2-.25,.35-.45,.54-.69-1.14-1.09-2.33-2.13-3.61-3.12-3.02-2.28-6.24-4.16-9.7-5.69-.99-.4-1.98-.79-3.02-1.14-1.83,3.22-3.81,6.34-5.99,9.35-2.47,3.51-5.15,6.88-7.82,10.24,.64,.94,1.39,1.93,2.18,2.97,2.57,3.32,5.49,6.38,8.71,9.11,.25,.2,.45,.4,.69,.59,4.41-4.26,8.31-9.06,12.03-13.91,2.08-2.57,4.01-5.15,5.99-7.72h0Z"/><path class="cls-1" d="M87.96,141.72c-2.18-4.9-4.9-9.55-8.17-13.81-.79-1.04-1.63-2.03-2.52-3.02-.45,.54-.84,1.09-1.29,1.63-4.65,6.04-9.16,12.22-14.4,17.77-.79,.79-1.53,1.63-2.33,2.38,2.08,1.48,4.31,2.82,6.53,4.01,1.43,.74,2.92,1.48,4.41,2.13,.05-.05,.1-.05,.1-.1,1.43-1.34,2.97-2.62,4.5-3.81,2.13-1.68,4.36-3.17,6.78-4.45,2.13-.99,4.21-1.93,6.38-2.72h0Z"/><path class="cls-1" d="M87.22,146.76c-3.27,1.43-6.34,3.17-9.21,5.35-1.04,.79-2.08,1.63-3.07,2.52,.99,.35,1.98,.64,2.97,.89,4.11,1.14,8.46,1.83,13.02,2.08,.69,.05,1.39,.05,2.13,.05-.94-4.01-2.03-7.97-3.41-11.83-.84,.3-1.63,.64-2.42,.94h0Z"/><path class="cls-1" d="M51.14,94.06c1.83-.15,3.66-.3,5.44-.45,1.39-.1,2.77-.25,4.11-.4,.25-1.04,.45-2.13,.59-3.17,.35-3.02,.4-5.99,0-9.01-.1-.54-.15-1.09-.3-1.63-3.02,1.48-6.19,2.67-9.4,3.66-5.49,1.63-11.23,2.57-16.93,2.57-.64,3.22-1.04,6.48-1.14,9.75,4.11-.1,8.21-.45,12.27-.84,1.83-.2,3.61-.34,5.35-.49h0Z"/><path class="cls-1" d="M49.46,105.24c2.13,.3,4.21,.64,6.29,1.19,.79-1.53,1.48-3.07,2.18-4.65,.54-1.34,1.04-2.67,1.53-4.01-.64,.05-1.29,.15-1.98,.2-3.22,.3-6.43,.54-9.65,.84-3.22,.3-6.43,.64-9.7,.84-1.48,.1-2.97,.15-4.5,.2,.1,1.93,.25,3.91,.54,5.84,.1,0,.2-.05,.25-.05,2.97-.49,5.94-.79,8.96-.79,2.03,0,4.06,.15,6.09,.4h0Z"/><path class="cls-1" d="M53.47,110.49c-1.34-.3-2.72-.59-4.11-.79-2.03-.25-4.11-.4-6.14-.4s-4.16,.15-6.24,.4c-.69,.1-1.39,.2-2.08,.35,.05,.15,.05,.35,.1,.49,.89,4.16,2.38,8.36,4.36,12.62,.64,1.39,1.39,2.77,2.18,4.21,.94-1.14,1.83-2.33,2.72-3.46,3.37-4.3,6.48-8.76,9.21-13.41h0Z"/><path class="cls-1" d="M71.09,52.29c2.67,1.98,5.54,3.61,8.61,4.9,.45,.2,.84,.35,1.29,.49,0-.05,.05-.05,.05-.1,2.92-3.81,5.44-7.92,7.37-12.37,1.14-2.77,2.03-5.59,2.47-8.56h-.3c-4.5,.3-8.96,1.04-13.16,2.28-4.06,1.19-8.07,2.82-11.98,4.95-.4,.2-.79,.45-1.19,.64,.54,.94,1.14,1.88,1.83,2.77,1.43,1.93,3.12,3.56,5,5h0Z"/><path class="cls-1" d="M57.97,62.38c1.48,1.83,2.82,3.76,3.91,5.84,.74,1.48,1.43,3.02,2.03,4.55,2.18-1.29,4.31-2.72,6.34-4.26,2.77-2.18,5.35-4.65,7.72-7.27-.35-.15-.69-.3-.99-.45-4.16-1.83-8.07-4.26-11.38-7.42-1.63-1.58-3.12-3.32-4.36-5.25-.25-.4-.49-.79-.74-1.24-1.93,1.34-3.86,2.77-5.74,4.41-1.24,1.04-2.42,2.18-3.66,3.41,2.52,2.38,4.75,5,6.88,7.67h0Z"/><path class="cls-1" d="M56.39,76.64c1.19-.49,2.38-1.09,3.56-1.68-.25-.74-.49-1.48-.79-2.23-1.09-2.47-2.42-4.8-4.06-6.98-2.13-2.72-4.41-5.4-6.98-7.72-.69,.79-1.39,1.68-2.13,2.67-2.57,3.37-4.8,7.08-6.68,11.04-1.43,3.02-2.57,6.19-3.46,9.4,1.93-.05,3.86-.2,5.74-.45,5.05-.69,10.05-2.08,14.8-4.06h0Z"/></svg>