<?xml version="1.0" encoding="UTF-8"?><svg id="Layer_1" xmlns="http://www.w3.org/2000/svg" viewBox="0 0 183.31 195"><defs><style>.cls-1{fill:#fff;}</style></defs><path class="cls-1" d="M167.78,84.07v-8.96h-4.48v-13.43h-4.48v-8.96h-4.48v-4.48h-4.48v-4.48h-4.48v-4.48h-4.48v-4.48h-4.48v-4.48h-8.96v-4.48h-8.96v-4.48h-13.43v-4.48h-26.87v4.48h-13.43v4.48h-8.96v4.48h-8.96v4.48h-4.48v4.48h-4.48v4.48h-4.48v4.48h-4.48v4.48h-4.48v8.96h-4.48v13.43h-4.48v13.43h-4.48v17.91h4.48v13.43h4.48v13.43h4.48v8.96h4.48v4.48h4.48v4.48h4.48v4.48h4.48v4.48h4.48v4.48h8.96v4.48h8.96v4.48h13.43v4.48h26.87v-4.48h13.43v-4.48h8.96v-4.48h8.96v-4.48h4.48v-4.48h4.48v-4.48h4.48v-4.48h4.48v-4.48h4.48v-8.96h4.48v-13.43h4.48v-13.43h4.48v-17.91h-4.48v-4.48Zm-4.48,8.96v13.43h-4.48v13.43h-4.48v13.43h-4.48v8.96h-4.48v4.48h-4.48v4.48h-4.48v4.48h-4.48v4.48h-8.96v4.48h-8.96v4.48h-44.78v-4.48h-8.96v-4.48h-8.96v-4.48h-4.48v-4.48h-4.48v-4.48h-4.48v-4.48h-4.48v-8.96h-4.48v-13.43h-4.48v-13.43h-4.48v-17.91h4.48v-13.43h4.48v-13.43h4.48v-8.96h4.48v-4.48h4.48v-4.48h4.48v-4.48h4.48v-4.48h8.96v-4.48h8.96v-4.48h44.78v4.48h8.96v4.48h8.96v4.48h4.48v4.48h4.48v4.48h4.48v4.48h4.48v8.96h4.48v13.43h4.48v13.43h4.48v4.48Z"/></svg>