<?xml version="1.0" encoding="UTF-8"?><svg id="Layer_1" xmlns="http://www.w3.org/2000/svg" viewBox="0 0 183.31 195"><defs><style>.cls-1{fill:#fff;}</style></defs><polygon class="cls-1" points="149.18 85.89 149.18 78.56 145.52 78.56 145.52 67.56 141.85 67.56 141.85 60.23 138.19 60.23 138.19 56.57 134.52 56.57 134.52 52.9 130.85 52.9 130.85 49.24 127.19 49.24 127.19 45.57 123.52 45.57 123.52 41.91 116.19 41.91 116.19 38.24 108.86 38.24 108.86 34.58 97.87 34.58 97.87 30.91 75.87 30.91 75.87 34.58 64.88 34.58 64.88 38.24 57.55 38.24 57.55 41.91 50.22 41.91 50.22 45.57 46.55 45.57 46.55 49.24 42.89 49.24 42.89 52.9 39.22 52.9 39.22 56.57 35.55 56.57 35.55 60.23 31.89 60.23 31.89 67.56 28.22 67.56 28.22 78.56 24.56 78.56 24.56 89.56 20.89 89.56 20.89 104.22 24.56 104.22 24.56 115.21 28.22 115.21 28.22 126.21 31.89 126.21 31.89 133.54 35.55 133.54 35.55 137.21 39.22 137.21 39.22 140.87 42.89 140.87 42.89 144.54 46.55 144.54 46.55 148.2 50.22 148.2 50.22 151.87 57.55 151.87 57.55 155.53 64.88 155.53 64.88 159.2 75.87 159.2 75.87 162.87 97.87 162.87 97.87 159.2 108.86 159.2 108.86 155.53 116.19 155.53 116.19 151.87 123.52 151.87 123.52 148.2 127.19 148.2 127.19 144.54 130.85 144.54 130.85 140.87 134.52 140.87 134.52 137.21 138.19 137.21 138.19 133.54 141.85 133.54 141.85 126.21 145.52 126.21 145.52 115.21 149.18 115.21 149.18 104.22 152.85 104.22 152.85 89.56 149.18 89.56 149.18 85.89"/><polygon class="cls-1" points="136.35 94.41 136.35 103.69 133.26 103.69 133.26 112.96 130.17 112.96 130.17 122.24 127.07 122.24 127.07 128.43 123.98 128.43 123.98 131.52 120.89 131.52 120.89 134.61 117.8 134.61 117.8 137.7 114.7 137.7 114.7 140.8 108.52 140.8 108.52 143.89 102.33 143.89 102.33 146.98 71.41 146.98 71.41 143.89 65.22 143.89 65.22 140.8 59.04 140.8 59.04 137.7 55.94 137.7 55.94 134.61 52.85 134.61 52.85 131.52 49.76 131.52 49.76 128.43 46.66 128.43 46.66 122.24 43.57 122.24 43.57 112.96 40.48 112.96 40.48 103.69 37.39 103.69 37.39 91.31 40.48 91.31 40.48 82.04 43.57 82.04 43.57 72.76 46.66 72.76 46.66 66.57 49.76 66.57 49.76 63.48 52.85 63.48 52.85 60.39 55.94 60.39 55.94 57.3 59.04 57.3 59.04 54.2 65.22 54.2 65.22 51.11 71.41 51.11 71.41 48.02 102.33 48.02 102.33 51.11 108.52 51.11 108.52 54.2 114.7 54.2 114.7 57.3 117.8 57.3 117.8 60.39 120.89 60.39 120.89 63.48 123.98 63.48 123.98 66.57 127.07 66.57 127.07 72.76 130.17 72.76 130.17 82.04 133.26 82.04 133.26 91.31 136.35 91.31 136.35 94.41"/></svg>