<?xml version="1.0" encoding="UTF-8"?><svg id="Layer_1" xmlns="http://www.w3.org/2000/svg" viewBox="0 0 183.31 195"><defs><style>.cls-1{fill:#fff;}</style></defs><path class="cls-1" d="M173.05,97.5c0-7.31-5.65-13.27-12.8-13.91,6.34-3.37,9.22-11.06,6.37-17.79-2.55-6.03-9.28-9.43-15.58-8.28,1.47-2.26,2.27-4.88,2.27-7.65,0-3.75-1.46-7.27-4.11-9.92-4.77-4.78-12.72-5.21-18.13-1.38,.7-2.87,.52-5.87-.63-8.64-1.43-3.46-4.13-6.16-7.59-7.6-6.38-2.65-13.88,.06-17.37,5.79-.99-6.77-6.79-12-13.83-12s-12.84,5.24-13.83,12.01c-3.5-5.74-11-8.44-17.37-5.79-3.46,1.43-6.15,4.13-7.59,7.59-1.15,2.78-1.33,5.78-.63,8.64-5.41-3.83-13.37-3.4-18.13,1.38-2.65,2.65-4.11,6.17-4.11,9.92,0,2.76,.8,5.39,2.28,7.65-6.3-1.15-13.03,2.26-15.58,8.28-2.85,6.74,.03,14.42,6.37,17.79-7.16,.63-12.81,6.59-12.81,13.9s5.65,13.27,12.8,13.91c-6.34,3.37-9.22,11.06-6.37,17.79,2.2,5.21,7.27,8.57,12.93,8.57,.89,0,1.77-.1,2.64-.26-1.46,2.25-2.27,4.87-2.27,7.62,0,3.75,1.46,7.27,4.11,9.92,2.65,2.65,6.17,4.11,9.92,4.11,3,0,5.83-.97,8.2-2.69-.69,2.86-.5,5.84,.65,8.61,1.43,3.46,4.13,6.16,7.59,7.6,1.72,.71,3.52,1.07,5.38,1.07,5.04,0,9.48-2.76,11.97-7.01,.93,6.84,6.75,12.15,13.84,12.15s12.92-5.31,13.84-12.15c2.5,4.26,6.94,7.01,11.97,7.01,1.85,0,3.65-.36,5.38-1.07,3.46-1.44,6.16-4.14,7.59-7.6,1.15-2.77,1.33-5.75,.65-8.61,2.37,1.72,5.2,2.69,8.2,2.69,3.75,0,7.27-1.46,9.92-4.11,2.65-2.65,4.11-6.17,4.11-9.92,0-2.75-.8-5.37-2.27-7.62,.86,.17,1.75,.26,2.64,.26,5.65,0,10.73-3.36,12.93-8.57,2.85-6.74-.03-14.42-6.37-17.79,7.15-.63,12.79-6.59,12.79-13.9h0Zm-19.36-34.66c3.39,0,6.44,2.01,7.76,5.15,1.81,4.27-.2,9.22-4.47,11.03-1.05,.44-2.15,.67-3.27,.67-3.39,0-6.44-2.02-7.76-5.15-.88-2.07-.89-4.36-.05-6.44,.84-2.09,2.45-3.72,4.52-4.59,1.04-.44,2.14-.66,3.26-.66h0Zm-14.4-21.39c2.25,0,4.36,.88,5.96,2.46,1.59,1.59,2.46,3.71,2.46,5.96s-.88,4.36-2.46,5.96c-3.18,3.18-8.73,3.18-11.91,0-1.59-1.59-2.46-3.71-2.46-5.96s.88-4.36,2.46-5.96,3.7-2.46,5.95-2.46Zm-29.59-9.4c1.31-3.15,4.36-5.19,7.78-5.19,1.11,0,2.2,.22,3.23,.65,2.08,.86,3.69,2.48,4.56,4.56,.86,2.08,.86,4.37,0,6.44-1.31,3.16-4.36,5.2-7.78,5.2-1.11,0-2.19-.22-3.22-.65-2.08-.86-3.69-2.48-4.56-4.56-.86-2.08-.86-4.37,0-6.44h0Zm-18.04-10.33c4.64,0,8.42,3.78,8.42,8.42s-3.78,8.42-8.42,8.42-8.42-3.78-8.42-8.42,3.78-8.42,8.42-8.42Zm-33.6,10.35c.86-2.08,2.48-3.7,4.56-4.56,1.03-.43,2.12-.65,3.22-.65,3.41,0,6.47,2.04,7.78,5.2,.86,2.08,.86,4.36,0,6.44-.86,2.08-2.48,3.7-4.56,4.56-4.21,1.76-9.27-.37-11-4.55-.86-2.08-.86-4.37,0-6.45h0Zm-19.98,11.85c1.59-1.59,3.71-2.46,5.96-2.46s4.36,.88,5.96,2.46c1.59,1.59,2.46,3.71,2.46,5.96s-.88,4.36-2.47,5.95c-3.18,3.18-8.73,3.18-11.91,0-1.59-1.59-2.46-3.71-2.46-5.96s.88-4.36,2.46-5.95h0Zm-16.21,24.07c1.32-3.13,4.37-5.15,7.76-5.15,1.12,0,2.22,.22,3.27,.67,2.07,.88,3.68,2.5,4.52,4.59,.85,2.08,.83,4.37-.05,6.44-1.76,4.16-6.82,6.26-11.04,4.47-4.28-1.81-6.29-6.76-4.48-11.03h0Zm-5.98,29.51c0-4.64,3.78-8.42,8.42-8.42s8.42,3.78,8.42,8.42-3.78,8.42-8.42,8.42-8.42-3.78-8.42-8.42Zm5.98,29.51c-1.81-4.27,.2-9.22,4.47-11.03,1.05-.44,2.15-.67,3.28-.67,3.39,0,6.43,2.02,7.76,5.15,.88,2.07,.89,4.36,.05,6.44-.84,2.09-2.45,3.72-4.52,4.59-1.05,.44-2.15,.67-3.27,.67-3.39-.01-6.44-2.03-7.76-5.15h0Zm16.21,24.07c-1.59-1.59-2.46-3.71-2.46-5.96s.88-4.36,2.46-5.96c1.59-1.59,3.71-2.46,5.96-2.46s4.36,.88,5.96,2.46,2.46,3.71,2.46,5.96-.88,4.36-2.46,5.96c-3.18,3.18-8.73,3.18-11.91,0h0Zm35.54,11.86c-1.73,4.18-6.78,6.3-11,4.55-2.08-.86-3.69-2.48-4.56-4.56-.86-2.08-.86-4.37,0-6.44,1.31-3.16,4.36-5.2,7.78-5.2,1.11,0,2.19,.22,3.22,.65,2.08,.86,3.69,2.48,4.56,4.56,.86,2.08,.86,4.37,0,6.44h0Zm18.04,10.33c-4.64,0-8.42-3.78-8.42-8.42s3.78-8.42,8.42-8.42,8.42,3.78,8.42,8.42-3.78,8.42-8.42,8.42Zm12.85-18.93c-.44,1.07-.7,2.18-.87,3.3-2.46-4.07-6.88-6.82-11.98-6.82s-9.52,2.76-11.98,6.83c-.17-1.12-.43-2.23-.87-3.3-1.43-3.46-4.13-6.16-7.59-7.6-4.59-1.9-9.76-1.02-13.61,1.75,.27-1.1,.45-2.22,.45-3.37,0-3.75-1.46-7.27-4.11-9.92-3.31-3.31-8.16-4.55-12.62-3.73,.5-.77,.94-1.59,1.3-2.47,1.4-3.47,1.37-7.29-.09-10.74-2.04-4.82-6.76-7.9-11.78-8.39,4.48-2.35,7.57-6.99,7.57-12.38s-3.09-10.02-7.55-12.37c5.16-.44,9.72-3.56,11.76-8.4,1.46-3.45,1.49-7.26,.08-10.74-.34-.83-.75-1.61-1.23-2.35,.86,.16,1.74,.26,2.63,.26,3.75,0,7.27-1.46,9.92-4.11,2.65-2.65,4.11-6.17,4.11-9.92,0-1.12-.17-2.21-.43-3.27,2.35,1.7,5.17,2.72,8.21,2.72,1.85,0,3.65-.36,5.37-1.07,3.46-1.44,6.16-4.14,7.59-7.6,.44-1.07,.7-2.18,.87-3.3,2.46,4.07,6.89,6.83,11.98,6.83s9.52-2.76,11.98-6.83c.17,1.12,.43,2.23,.87,3.3,1.43,3.46,4.13,6.16,7.59,7.6,1.72,.71,3.52,1.07,5.38,1.07,3.04,0,5.87-1.02,8.21-2.73-.25,1.07-.43,2.15-.43,3.27,0,3.75,1.46,7.27,4.11,9.92,2.65,2.65,6.17,4.11,9.92,4.11,.89,0,1.77-.1,2.63-.26-.47,.74-.89,1.52-1.23,2.35-1.41,3.47-1.38,7.29,.08,10.74,2.04,4.83,6.6,7.96,11.76,8.4-4.46,2.36-7.55,6.99-7.55,12.38s3.09,10.04,7.57,12.38c-5.03,.48-9.74,3.57-11.78,8.39-1.46,3.45-1.49,7.26-.08,10.74,.35,.88,.79,1.7,1.3,2.47-4.47-.83-9.32,.42-12.62,3.73-2.65,2.65-4.11,6.17-4.11,9.92,0,1.16,.19,2.28,.45,3.38-3.86-2.77-9.03-3.66-13.61-1.76-3.47,1.44-6.16,4.14-7.59,7.6h0Zm20.75,8.58c-.86,2.08-2.48,3.7-4.56,4.56-4.21,1.76-9.27-.37-11-4.55-.86-2.08-.86-4.36,0-6.44,.86-2.08,2.48-3.7,4.56-4.56,1.03-.43,2.12-.65,3.22-.65,3.42,0,6.47,2.04,7.78,5.19,.86,2.08,.86,4.37,0,6.45h0Zm19.98-11.85c-3.18,3.18-8.73,3.18-11.91,0-1.59-1.59-2.46-3.71-2.46-5.96s.88-4.36,2.46-5.96,3.71-2.46,5.96-2.46,4.36,.88,5.96,2.46,2.46,3.71,2.46,5.96-.88,4.37-2.47,5.96h0Zm16.21-24.07c-1.76,4.16-6.83,6.24-11.04,4.48-2.07-.88-3.68-2.5-4.52-4.59-.85-2.08-.83-4.37,.05-6.44,1.32-3.13,4.37-5.15,7.76-5.15,1.13,0,2.23,.22,3.28,.67,4.28,1.81,6.29,6.76,4.48,11.04h0Zm-2.44-21.09c-4.64,0-8.42-3.78-8.42-8.42s3.78-8.42,8.42-8.42,8.42,3.78,8.42,8.42-3.78,8.42-8.42,8.42Z"/></svg>