<?xml version="1.0" encoding="UTF-8"?><svg id="Layer_1" xmlns="http://www.w3.org/2000/svg" viewBox="0 0 183.31 195"><defs><style>.cls-1{fill:#fff;}</style></defs><path class="cls-1" d="M162.2,105.37l-33.96-5.15-3.13-.67,3.21-.15,2.07,.16,37.81-1.81-.15-4.25-5.34,.13v-.13s-34.32,.82-34.32,.82l-3.28-.12,3.07-.69,2.06-.2,37.05-8.36-.89-4.16-5.24,1.05-.03-.13-33.65,6.77-3.26,.45,2.9-1.22,2-.56,35.03-14.67-1.6-3.94-4.97,1.95-.05-.12-31.98,12.51-3.11,1,2.65-1.7,1.87-.9,31.96-20.53-2.26-3.6-4.56,2.78-.07-.11-29.3,17.87-2.9,1.53,2.32-2.14,1.68-1.21,27.91-25.76-2.85-3.16-4.01,3.53-.09-.1-25.76,22.7-2.59,2.01,1.91-2.51,1.45-1.48,23.01-30.22-3.35-2.61-3.33,4.17-.1-.08-21.42,26.81-2.21,2.44,1.45-2.8,1.17-1.71,17.41-33.76-3.76-1.99-2.56,4.69-.11-.06-16.44,30.12-1.75,2.79,.94-3.01,.85-1.89,11.28-36.26-4.05-1.31-1.7,5.06-.13-.04-10.96,32.53-1.24,3.04,.4-3.12,.51-2.01,4.82-37.67-4.21-.59-.8,5.28-.13-.02-5.15,33.94-.68,3.14-.15-3.21,.15-2.07-1.81-37.8-4.25,.15,.13,5.34h-.13s.82,34.32,.82,34.32l-.12,3.28-.69-3.07-.2-2.06-8.36-37.05-4.16,.89,1.05,5.24-.13,.03,6.77,33.65,.45,3.25-1.22-2.91-.56-1.99-14.67-35.03-3.94,1.6,1.95,4.97-.12,.05,12.51,31.97,1,3.11-1.7-2.65-.9-1.86-20.53-31.95-3.6,2.26,2.78,4.56-.11,.07,17.87,29.3,1.53,2.9-2.14-2.32-1.2-1.68-25.77-27.9-3.16,2.85,3.53,4.01-.09,.09,22.68,25.75,2.02,2.6-2.52-1.92-1.47-1.44-30.22-23.01-2.61,3.35,4.17,3.33-.08,.1,26.79,21.41,2.45,2.22-2.79-1.44-1.72-1.18L31.37,58.63l-1.99,3.76,4.69,2.56-.06,.11,30.12,16.43,2.79,1.75-3-.94-1.89-.86-36.26-11.28-1.31,4.05,5.06,1.7-.04,.12,32.51,10.96,3.06,1.25-3.12-.4-2.02-.51-37.67-4.82-.58,4.21,5.28,.8-.02,.13,33.94,5.15,3.14,.68-3.2,.15-2.08-.16-37.81,1.81,.15,4.25,5.34-.13v.13s34.32-.82,34.32-.82l3.27,.12-3.08,.69-2.04,.2-37.05,8.36,.89,4.16,5.24-1.06,.03,.13,33.62-6.77,3.28-.45-2.91,1.22-1.99,.56-35.04,14.67,1.6,3.94,4.97-1.95,.05,.12,31.97-12.51,3.12-1-2.66,1.7-1.87,.9-31.96,20.53,2.26,3.6,4.56-2.78,.07,.11,29.31-17.88,2.9-1.53-2.31,2.14-1.69,1.21-27.91,25.77,2.85,3.16,4.01-3.53,.09,.1,25.76-22.69,2.6-2.01-1.91,2.51-1.45,1.48-23.01,30.22,3.35,2.61,3.33-4.17,.1,.08,21.42-26.81,2.2-2.43-1.44,2.79-1.17,1.71-17.41,33.76,3.76,1.99,2.56-4.69,.11,.06,16.44-30.12,1.75-2.79-.94,3.01-.85,1.89-11.28,36.26,4.05,1.31,1.71-5.06,.12,.04,10.95-32.5,1.25-3.06-.4,3.13-.51,2-4.82,37.67,4.21,.59,.8-5.28,.13,.02,5.15-33.94,.68-3.15,.15,3.21-.16,2.08,1.81,37.81,4.25-.15-.13-5.34h.13s-.82-34.32-.82-34.32l.12-3.28,.69,3.08,.2,2.06,8.36,37.05,4.16-.89-1.06-5.23,.13-.03-6.77-33.65-.45-3.26,1.22,2.9,.56,2,14.67,35.04,3.94-1.6-1.95-4.97,.12-.05-12.51-31.97-1-3.11,1.7,2.65,.9,1.86,20.53,31.96,3.6-2.26-2.78-4.56,.11-.07-17.88-29.33-1.52-2.88,2.14,2.33,1.21,1.68,25.76,27.9,3.16-2.85-3.53-4.01,.1-.09-22.69-25.76-2.01-2.59,2.51,1.91,1.48,1.44,30.22,23.01,2.61-3.35-4.17-3.33,.08-.1-26.83-21.44-2.42-2.2,2.8,1.45,1.71,1.17,33.76,17.41,1.99-3.75-4.69-2.56,.06-.11-30.13-16.44-2.78-1.75,3.01,.94,1.88,.85,36.26,11.28,1.31-4.05-5.06-1.7,.04-.12-32.52-10.96-3.05-1.24,3.13,.4,2,.51,37.67,4.82,.59-4.21-5.28-.8,.03-.13Zm-61.89-5.76l-.62,.94-.79,.84-.9,.68-1.03,.52-1.07,.32-1.15,.14-1.13-.06-1.1-.26-1.05-.45-.95-.62-.84-.79-.68-.91-.51-1.02-.33-1.09-.13-1.13,.07-1.15,.26-1.1,.45-1.06,.62-.95,.79-.84,.9-.67,1.02-.52,1.09-.33,1.13-.13,1.14,.06,1.12,.26,1.03,.44,.96,.63,.83,.78,.68,.91,.52,1.03,.33,1.09,.13,1.12-.07,1.14-.26,1.11-.45,1.05Z"/></svg>